<svg width="34" height="34" viewBox="0 0 34 34" fill="none" xmlns="http://www.w3.org/2000/svg">
<g clip-path="url(#clip0_2_66)">
<path d="M16.2635 9.19241C16.0759 9.37994 15.9706 9.6343 15.9706 9.89951C15.9706 10.1647 16.0759 10.4191 16.2635 10.6066L21.6304 15.9736L9.89949 15.9665C9.63319 15.9665 9.3778 16.0723 9.18949 16.2606C9.00119 16.4489 8.8954 16.7043 8.8954 16.9706C8.8954 17.2369 9.00119 17.4923 9.18949 17.6806C9.3778 17.8689 9.63319 17.9747 9.89949 17.9747L21.6304 17.9676L16.2635 23.3345C16.0759 23.5221 15.9706 23.7764 15.9706 24.0416C15.9706 24.3069 16.0759 24.5612 16.2635 24.7488C16.451 24.9363 16.7053 25.0416 16.9706 25.0416C17.2358 25.0416 17.4901 24.9363 17.6777 24.7488L24.7487 17.6777C24.84 17.5842 24.9121 17.4737 24.9609 17.3524C25.0619 17.1079 25.0619 16.8333 24.9609 16.5887C24.9121 16.4675 24.84 16.357 24.7487 16.2635L17.6777 9.19241C17.4901 9.00487 17.2358 8.89951 16.9706 8.89951C16.7053 8.89951 16.451 9.00487 16.2635 9.19241Z" fill="#FFFEFE"/>
</g>
<defs>
<clipPath id="clip0_2_66">
<rect width="24" height="24" fill="white" transform="translate(0 16.9706) rotate(-45)"/>
</clipPath>
</defs>
</svg>
